<svg width="135.47mm" height="135.47mm" version="1.1" viewBox="0 0 135.47 135.47" xmlns="http://www.w3.org/2000/svg">
 <g>
  <rect x="0" y="0" width="135.47" height="135.47" fill="#3b5883"/>
  <g id="ampegel" transform="matrix(2.2607 0 0 2.2607 -113.92 -145.66)" fill="#fff">
   <path d="m53.84 105.38q1.2212-0.56988 2.4912-0.56988 1.1072 0 1.6608 0.50475 0.56987 0.50474 0.56987 1.6282v3.81h0.97692v0.89552h-1.8887l-0.06513-0.99321h-0.04885q-0.87923 0.99321-2.0841 0.99321-0.97692 0-1.4979-0.48847-0.52103-0.50474-0.52103-1.384 0-2.1818 3.4681-2.1818h0.68385v-0.68384q0-0.58616-0.34192-0.89551-0.32564-0.30936-1.0583-0.30936-1.0746 0-2.3446 0.56987zm2.8982 3.1099q-2.2469 0-2.2469 1.2212 0 0.52103 0.29308 0.78154 0.30936 0.26051 0.87923 0.26051 1.0421 0 1.9213-0.9932v-1.27z"/>
   <path d="m60.361 110.76h0.97692v-5.0474h-0.97692v-0.89552h1.8887l0.06513 0.92808h0.03256q0.86295-0.92808 2.0678-0.92808 1.2863 0 1.7422 1.0746h0.04885q0.9118-1.0746 2.1981-1.0746 0.92808 0 1.4003 0.52103 0.48846 0.52103 0.48846 1.4654v3.9565h0.97692v0.89552h-2.9308v-0.89552h0.97692v-3.696q0-0.71641-0.30936-1.0258-0.30936-0.32564-0.87923-0.32564-1.0258 0-1.8236 1.042v4.0054h0.97692v0.89552h-2.9308v-0.89552h0.97692v-3.696q0-0.71641-0.30936-1.0258-0.30936-0.32564-0.87923-0.32564-1.0258 0-1.8236 1.042v4.0054h0.97692v0.89552h-2.9308z"/>
   <path d="m76.974 107.75v3.0122h0.97692v0.89552h-2.9308v-0.89552h0.97692v-7.0013h-0.97692v-0.89551h3.9077q1.5794 0 2.2958 0.58615 0.71641 0.58616 0.71641 1.7259 0 1.27-0.84667 1.9213-0.83038 0.65128-2.3772 0.65128zm1.791-0.89551q1.0258 0 1.5631-0.37449 0.55359-0.39077 0.55359-1.2049 0-0.79782-0.48846-1.156-0.48846-0.35821-1.5468-0.35821h-1.8724v3.0936z"/>
   <path d="m86.449 110.76q1.0583 0 2.0841-0.66756v0.96064q-1.0583 0.60244-2.2144 0.60244-1.4654 0-2.3121-0.9118-0.84667-0.92808-0.84667-2.4097 0-1.6608 0.83038-2.5888 0.84667-0.92808 2.2144-0.92808 1.1886 0 1.8399 0.81411 0.65128 0.79782 0.65128 2.2306v0.50474h-4.4776q0.04885 1.1235 0.56987 1.7585 0.53731 0.635 1.6608 0.635zm1.27-3.289q-0.08141-1.7585-1.6282-1.7585-0.8141 0-1.27 0.47218-0.43962 0.45589-0.55359 1.2863z"/>
   <path d="m94.565 111.38v-0.47218h-0.03256q-0.78154 0.74898-1.791 0.74898-1.1886 0-1.9701-0.92808-0.76526-0.92808-0.76526-2.3446 0-1.6119 0.84667-2.5888 0.84667-0.97693 2.4097-0.97693 1.0095 0 2.2795 0.37449v6.1872q0 1.7096-0.70013 2.4586t-2.2469 0.74897q-0.97692 0-1.9376-0.27679v-0.94436q0.89551 0.32564 1.9376 0.32564 1.0746 0 1.5142-0.47218 0.4559-0.4559 0.4559-1.8399zm0-5.5033q-0.66756-0.16282-1.384-0.16282-1.0746 0-1.5956 0.635-0.52103 0.61871-0.52103 1.8887 0 1.2537 0.50474 1.8887t1.4165 0.635q0.9118 0 1.5794-0.70013z"/>
   <path d="m101.11 110.76q1.0583 0 2.0841-0.66756v0.96064q-1.0583 0.60244-2.2144 0.60244-1.4654 0-2.3121-0.9118-0.84667-0.92808-0.84667-2.4097 0-1.6608 0.83038-2.5888 0.84667-0.92808 2.2144-0.92808 1.1886 0 1.8399 0.81411 0.65129 0.79782 0.65129 2.2306v0.50474h-4.4776q0.04885 1.1235 0.56987 1.7585 0.53731 0.635 1.6608 0.635zm1.27-3.289q-0.0814-1.7585-1.6282-1.7585-0.81411 0-1.27 0.47218-0.43962 0.45589-0.55359 1.2863z"/>
   <path d="m104.34 110.76h0.97693v-7.9782h-0.97693v-0.89552h1.9538v8.8737h0.97692v0.89552h-2.9308z"/>
  </g>
  <g id="talk" transform="matrix(1.5203 0 0 1.5203 -41.391 -111.34)" fill="#fa5555">
   <path d="m37.904 116.85h3.0769v-22.051h-6.1538v5.3846h-3.0769v-8.2051h21.538v8.2051h-3.0769v-5.3846h-6.1538v22.051h3.0769v2.8205h-9.2307z"/>
   <path d="m57.385 99.922q3.8461-1.7949 7.8461-1.7949 3.4872 0 5.2308 1.5897 1.7949 1.5897 1.7949 5.1282v12h3.0769v2.8205h-5.9487l-0.20513-3.1282h-0.15385q-2.7692 3.1282-6.5641 3.1282-3.0769 0-4.7179-1.5385-1.641-1.5897-1.641-4.359 0-6.8718 10.923-6.8718h2.1538v-2.1538q0-1.8462-1.0769-2.8205-1.0256-0.97435-3.3333-0.97435-3.3846 0-7.3846 1.7949zm9.1282 9.7949q-7.0769 0-7.0769 3.8461 0 1.641 0.92308 2.4615 0.97436 0.82051 2.7692 0.82051 3.282 0 6.0513-3.1282v-4z"/>
   <path d="m77.922 116.85h3.0769v-25.128h-3.0769v-2.8205h6.1538v27.949h3.0769v2.8205h-9.2307z"/>
   <path d="m107.09 119.67-10.154-11.538 7.5897-7.0769v-0.10256h-2.9744v-2.8205h9.2308v2.8205h-2.6667l-7.3846 6.8718 8 9.0256h3.0769v2.8205zm-16.82-2.8205h3.0769v-25.128h-3.0769v-2.8205h6.1538v27.949h3.0769v2.8205h-9.2307z"/>
  </g>
 </g>
</svg>
