<?xml version="1.0" standalone="no"?>
<!DOCTYPE svg PUBLIC "-//W3C//DTD SVG 20010904//EN"
 "http://www.w3.org/TR/2001/REC-SVG-20010904/DTD/svg10.dtd">
<svg version="1.0" xmlns="http://www.w3.org/2000/svg"
 width="260.000000pt" height="260.000000pt" viewBox="0 0 260.000000 260.000000"
 preserveAspectRatio="xMidYMid meet">
<metadata>
Created by potrace 1.11, written by Peter Selinger 2001-2013
</metadata>
<g transform="translate(0.000000,260.000000) scale(0.100000,-0.100000)"
fill="#000000" stroke="none">
<path d="M12 2588 c-17 -17 -17 -2559 0 -2576 17 -17 2559 -17 2576 0 17 17
17 2559 0 2576 -17 17 -2559 17 -2576 0z m1578 -843 l0 -385 40 0 40 0 0 -40
0 -40 -125 0 -125 0 0 40 0 40 40 0 40 0 0 345 0 345 -40 0 -40 0 0 40 0 40
85 0 85 0 0 -385z m340 0 l0 -385 40 0 40 0 0 -40 0 -40 -125 0 -125 0 0 40 0
40 40 0 40 0 0 345 0 345 -40 0 -40 0 0 40 0 40 85 0 85 0 0 -385z m-1190 185
l0 -110 -40 0 -40 0 0 70 0 70 -85 0 -85 0 0 -300 0 -300 40 0 40 0 0 -40 0
-40 -125 0 -125 0 0 40 0 40 40 0 40 0 0 300 0 300 -80 0 -80 0 0 -70 0 -70
-45 0 -45 0 0 110 0 110 295 0 295 0 0 -110z m422 -72 c46 -14 83 -54 98 -106
5 -20 10 -117 10 -214 l0 -178 40 0 40 0 0 -40 0 -40 -79 0 -79 0 -7 39 -6 39
-50 -34 c-58 -38 -102 -49 -167 -40 -87 12 -137 68 -137 154 0 121 79 180 254
189 l101 6 0 49 c0 41 -5 54 -29 79 -27 26 -36 29 -94 29 -37 0 -93 -9 -129
-20 -34 -11 -64 -20 -65 -20 -2 0 -3 17 -3 39 0 38 0 38 58 55 31 10 62 19 67
21 25 8 141 4 177 -7z m1158 -28 c0 -40 0 -40 -37 -40 -34 0 -49 -10 -136 -93
l-98 -92 108 -122 c106 -121 109 -123 151 -123 l42 0 0 -40 0 -40 -64 0 -64 0
-136 155 c-75 84 -136 157 -136 162 0 4 44 49 98 100 l97 92 -37 1 c-38 0 -38
1 -38 40 l0 40 125 0 125 0 0 -40z m60 -1160 c0 -183 1 -190 20 -190 13 0 20
-7 20 -20 0 -18 -7 -20 -65 -20 -58 0 -65 2 -65 20 0 13 7 20 20 20 19 0 20 7
20 165 0 158 -1 165 -20 165 -15 0 -20 7 -20 25 0 23 4 25 45 25 l45 0 0 -190z
m-1074 124 c56 -41 52 -139 -7 -170 -16 -8 -59 -18 -94 -21 l-65 -6 0 -58 c0
-52 2 -59 20 -59 13 0 20 -7 20 -20 0 -18 -7 -20 -65 -20 -58 0 -65 2 -65 20
0 13 7 20 20 20 19 0 20 7 20 145 0 138 -1 145 -20 145 -15 0 -20 7 -20 26 l0
26 114 -4 c97 -2 119 -6 142 -24z m-1001 -70 c31 -12 45 -59 45 -154 0 -83 1
-90 20 -90 13 0 20 -7 20 -20 0 -17 -7 -20 -45 -20 -35 0 -45 4 -45 16 0 15
-2 15 -25 0 -31 -20 -94 -21 -122 -1 -26 18 -37 63 -24 98 13 33 53 54 119 63
57 7 68 27 35 59 -16 17 -58 17 -120 -1 -36 -10 -31 31 5 44 31 12 112 15 137
6z m203 -6 c9 -9 15 -9 24 0 17 17 89 15 116 -3 19 -14 24 -14 51 0 34 17 84
20 111 5 27 -15 40 -64 40 -156 0 -77 2 -84 20 -84 13 0 20 -7 20 -20 0 -18
-7 -20 -65 -20 -58 0 -65 2 -65 20 0 13 7 20 20 20 18 0 20 7 20 78 0 42 -3
87 -6 100 -8 30 -45 37 -83 18 l-31 -17 0 -89 c0 -83 1 -90 20 -90 13 0 20 -7
20 -20 0 -18 -7 -20 -65 -20 -58 0 -65 2 -65 20 0 13 7 20 20 20 18 0 20 7 20
78 0 42 -3 87 -6 100 -8 30 -45 37 -83 18 l-31 -17 0 -89 c0 -83 1 -90 20 -90
13 0 20 -7 20 -20 0 -18 -7 -20 -65 -20 -58 0 -65 2 -65 20 0 13 7 20 20 20
19 0 20 7 20 105 0 98 -1 105 -20 105 -13 0 -20 7 -20 20 0 16 7 20 38 20 21
0 43 -5 50 -12z m1073 2 c26 -15 49 -62 49 -105 l0 -35 -94 0 -95 0 9 -31 c12
-42 25 -56 59 -62 27 -6 59 0 104 18 13 6 17 2 17 -18 0 -19 -7 -28 -31 -36
-54 -19 -123 -14 -154 11 -73 57 -73 189 0 246 30 24 101 30 136 12z m317 4
l23 -7 -3 -172 c-3 -154 -5 -175 -22 -194 -27 -30 -85 -45 -140 -37 -40 6 -46
10 -46 31 0 22 2 23 60 18 73 -7 100 10 100 64 0 30 -2 33 -19 23 -59 -31
-138 7 -162 77 -12 38 -7 110 12 144 25 48 119 73 197 53z m303 -4 c26 -15 49
-62 49 -105 l0 -35 -94 0 -95 0 9 -31 c12 -42 25 -56 59 -62 27 -6 59 0 104
18 13 6 17 2 17 -18 0 -19 -7 -28 -31 -36 -54 -19 -123 -14 -154 11 -73 57
-73 189 0 246 30 24 101 30 136 12z"/>
<path d="M996 1540 c-50 -15 -76 -48 -76 -96 0 -34 5 -47 26 -63 49 -38 147
-21 207 36 23 23 27 35 27 80 l0 53 -77 -1 c-43 0 -91 -5 -107 -9z"/>
<path d="M1140 710 l0 -60 53 0 c68 0 97 19 97 65 0 43 -20 55 -94 55 l-56 0
0 -60z"/>
<path d="M203 560 c-27 -11 -31 -51 -8 -70 31 -26 105 13 105 57 0 20 -5 23
-37 22 -21 0 -48 -4 -60 -9z"/>
<path d="M1485 678 c-23 -13 -35 -28 -35 -45 0 -9 20 -13 65 -13 72 0 83 12
45 50 -22 22 -45 25 -75 8z"/>
<path d="M1785 680 c-34 -13 -47 -37 -48 -87 -1 -83 40 -124 103 -102 l30 11
0 88 c0 71 -3 89 -16 94 -20 8 -44 7 -69 -4z"/>
<path d="M2105 678 c-23 -13 -35 -28 -35 -45 0 -9 20 -13 65 -13 72 0 83 12
45 50 -22 22 -45 25 -75 8z"/>
</g>
</svg>
