<svg xmlns="http://www.w3.org/2000/svg" height="40" width="212"><g aria-label="Talk am Pegel"><path d="M4.923 29.744h2.462V12.103H2.462v4.307H0V9.846h17.23v6.564h-2.46v-4.307H9.845v17.64h2.462V32H4.923zM20.508 16.205q3.077-1.436 6.277-1.436 2.79 0 4.185 1.272 1.435 1.272 1.435 4.103v9.6h2.462V32h-4.759l-.164-2.503h-.123Q27.605 32 24.57 32q-2.462 0-3.775-1.23-1.313-1.273-1.313-3.488 0-5.497 8.739-5.497h1.723v-1.723q0-1.477-.862-2.257-.82-.78-2.666-.78-2.708 0-5.908 1.437zm7.303 7.836q-5.662 0-5.662 3.077 0 1.313.738 1.97.78.656 2.216.656 2.626 0 4.84-2.503v-3.2zM36.938 29.744h2.461V9.64h-2.462V7.385h4.924v22.359h2.461V32h-7.385zM60.269 32l-8.123-9.23 6.072-5.662v-.082h-2.38v-2.257h7.385v2.257h-2.134l-5.907 5.497 6.4 7.22h2.461V32zm-13.456-2.256h2.461V9.64h-2.462V7.385h4.924v22.359h2.461V32h-7.385z" fill="#fa5555"/><path d="M74.696 16.205q3.076-1.436 6.276-1.436 2.79 0 4.185 1.272 1.436 1.272 1.436 4.103v9.6h2.461V32h-4.758l-.165-2.503h-.123Q81.793 32 78.758 32q-2.462 0-3.775-1.23-1.313-1.273-1.313-3.488 0-5.497 8.738-5.497h1.723v-1.723q0-1.477-.861-2.257-.82-.78-2.667-.78-2.707 0-5.907 1.437zm7.302 7.836q-5.661 0-5.661 3.077 0 1.313.738 1.97.78.656 2.215.656 2.626 0 4.841-2.503v-3.2zM91.125 29.744h2.462V17.026h-2.462v-2.257h4.759l.164 2.339h.082q2.174-2.339 5.21-2.339 3.241 0 4.39 2.708h.123q2.298-2.708 5.539-2.708 2.338 0 3.528 1.313 1.23 1.313 1.23 3.692v9.97h2.462V32h-7.384v-2.256h2.461V20.43q0-1.805-.78-2.585-.779-.82-2.215-.82-2.584 0-4.595 2.625v10.093h2.462V32h-7.385v-2.256h2.462V20.43q0-1.805-.78-2.585-.78-.82-2.215-.82-2.585 0-4.595 2.625v10.093h2.462V32h-7.385zM132.986 22.154v7.59h2.461V32h-7.384v-2.256h2.461V12.103h-2.462V9.846h9.847q3.98 0 5.784 1.477 1.805 1.477 1.805 4.349 0 3.2-2.133 4.84-2.092 1.642-5.99 1.642zm4.512-2.257q2.585 0 3.939-.943 1.395-.985 1.395-3.036 0-2.01-1.231-2.913-1.23-.902-3.897-.902h-4.718v7.794zM156.858 29.744q2.666 0 5.251-1.682v2.42Q159.442 32 156.529 32q-3.692 0-5.825-2.297-2.133-2.339-2.133-6.072 0-4.185 2.092-6.523 2.133-2.339 5.58-2.339 2.994 0 4.635 2.052 1.641 2.01 1.641 5.62v1.272h-11.282q.123 2.83 1.436 4.43 1.354 1.6 4.185 1.6zm3.2-8.288q-.205-4.43-4.103-4.43-2.051 0-3.2 1.19-1.108 1.148-1.395 3.24zM177.308 31.303v-1.19h-.082Q175.256 32 172.713 32q-2.995 0-4.964-2.338-1.928-2.339-1.928-5.908 0-4.062 2.133-6.523 2.133-2.462 6.072-2.462 2.543 0 5.743.944v15.59q0 4.307-1.764 6.194-1.764 1.888-5.661 1.888-2.462 0-4.882-.698v-2.38q2.256.821 4.882.821 2.707 0 3.815-1.19 1.149-1.148 1.149-4.635zm0-13.867q-1.682-.41-3.487-.41-2.708 0-4.021 1.6-1.313 1.559-1.313 4.759 0 3.159 1.272 4.759 1.272 1.6 3.57 1.6 2.297 0 3.979-1.765zM193.795 29.744q2.667 0 5.251-1.682v2.42Q196.38 32 193.467 32q-3.692 0-5.826-2.297-2.133-2.339-2.133-6.072 0-4.185 2.092-6.523 2.134-2.339 5.58-2.339 2.995 0 4.636 2.052 1.64 2.01 1.64 5.62v1.272h-11.281q.123 2.83 1.436 4.43 1.353 1.6 4.184 1.6zm3.2-8.288q-.205-4.43-4.102-4.43-2.052 0-3.2 1.19-1.108 1.148-1.395 3.24zM201.938 29.744h2.461V9.64h-2.462V7.385h4.924v22.359h2.461V32h-7.384z" fill="#fff"/></g></svg>