<?xml version="1.0" encoding="UTF-8" standalone="no"?>
<svg xmlns="http://www.w3.org/2000/svg" viewBox="0 0 212 40" height="40" width="212">
  <title
     id="title48">Talk am Pegel Logo</title>
  <g aria-label="Talk am Pegel">
    <path
       id="path60"
       style="fill:#fa5555"
       d="M 4.9230769,29.74359 H 7.3846154 V 12.102564 H 2.4615385 v 4.307692 H 0 V 9.8461538 H 17.230769 V 16.410256 H 14.769231 V 12.102564 H 9.8461538 V 29.74359 H 12.307692 V 32 H 4.9230769 Z" />
    <path
       id="path62"
       style="fill:#fa5555"
       d="m 20.508013,16.205128 q 3.076923,-1.435897 6.276923,-1.435897 2.789743,0 4.184615,1.271795 1.435898,1.271795 1.435898,4.102564 v 9.6 h 2.461538 V 32 H 30.108013 L 29.94391,29.497436 H 29.820833 Q 27.605449,32 24.569551,32 q -2.461538,0 -3.774359,-1.230769 -1.31282,-1.271795 -1.31282,-3.48718 0,-5.497436 8.738461,-5.497436 h 1.723077 v -1.723077 q 0,-1.476923 -0.861538,-2.25641 -0.820513,-0.779487 -2.666667,-0.779487 -2.707692,0 -5.907692,1.435897 z m 7.302564,7.835898 q -5.661539,0 -5.661539,3.076923 0,1.31282 0.738462,1.96923 0.779487,0.656411 2.215385,0.656411 2.625641,0 4.841025,-2.502564 v -3.2 z" />
    <path
       id="path64"
       style="fill:#fa5555"
       d="m 36.9375,29.74359 h 2.461538 V 9.6410256 H 36.9375 V 7.3846154 h 4.923077 V 29.74359 h 2.461538 V 32 H 36.9375 Z" />
    <path
       id="path66"
       style="fill:#fa5555"
       d="m 60.26891,32 -8.123077,-9.230769 6.071795,-5.661539 v -0.08205 h -2.379487 v -2.25641 h 7.384615 v 2.25641 h -2.133333 l -5.907692,5.497436 6.4,7.220513 h 2.461538 V 32 Z M 46.8125,29.74359 h 2.461538 V 9.6410256 H 46.8125 V 7.3846154 h 4.923077 V 29.74359 h 2.461538 V 32 H 46.8125 Z" />
    <path
       id="path68"
       style="fill:#ffffff"
       d="m 74.695513,16.205128 q 3.076923,-1.435897 6.276923,-1.435897 2.789743,0 4.184615,1.271795 1.435898,1.271795 1.435898,4.102564 v 9.6 h 2.461538 V 32 H 84.295513 L 84.13141,29.497436 H 84.008333 Q 81.792949,32 78.757051,32 q -2.461538,0 -3.774359,-1.230769 -1.31282,-1.271795 -1.31282,-3.48718 0,-5.497436 8.738461,-5.497436 h 1.723077 v -1.723077 q 0,-1.476923 -0.861538,-2.25641 -0.820513,-0.779487 -2.666667,-0.779487 -2.707692,0 -5.907692,1.435897 z m 7.302564,7.835898 q -5.661539,0 -5.661539,3.076923 0,1.31282 0.738462,1.96923 0.779487,0.656411 2.215385,0.656411 2.625641,0 4.841025,-2.502564 v -3.2 z" />
    <path
       id="path70"
       style="fill:#ffffff"
       d="m 91.125,29.74359 h 2.461538 V 17.025641 H 91.125 v -2.25641 h 4.758974 l 0.164103,2.338461 h 0.08205 q 2.174359,-2.338461 5.210252,-2.338461 3.24103,0 4.38975,2.707692 h 0.12308 q 2.29743,-2.707692 5.53846,-2.707692 2.33846,0 3.5282,1.31282 1.23077,1.312821 1.23077,3.692308 v 9.969231 h 2.46154 V 32 h -7.38462 v -2.25641 h 2.46154 v -9.312821 q 0,-1.805128 -0.77948,-2.584615 -0.77949,-0.820513 -2.21539,-0.820513 -2.58461,0 -4.59487,2.625641 V 29.74359 h 2.46154 V 32 h -7.38462 v -2.25641 h 2.46154 v -9.312821 q 0,-1.805128 -0.77949,-2.584615 -0.77948,-0.820513 -2.21538,-0.820513 -2.584617,0 -4.594873,2.625641 V 29.74359 h 2.461538 V 32 H 91.125 Z" />
    <path
       id="path72"
       style="fill:#ffffff"
       d="m 132.98558,22.153846 v 7.589744 h 2.46154 V 32 h -7.38462 v -2.25641 h 2.46154 V 12.102564 H 128.0625 V 9.8461538 h 9.84615 q 3.97949,0 5.78462,1.4769232 1.80513,1.476923 1.80513,4.348718 0,3.2 -2.13334,4.841026 -2.0923,1.641025 -5.98974,1.641025 z m 4.51282,-2.25641 q 2.58461,0 3.93846,-0.94359 1.39487,-0.984615 1.39487,-3.035897 0,-2.010257 -1.23077,-2.912821 -1.23077,-0.902564 -3.89743,-0.902564 h -4.71795 v 7.794872 z" />
    <path
       id="path74"
       style="fill:#ffffff"
       d="m 156.85769,29.74359 q 2.66667,0 5.25128,-1.682052 v 2.420513 Q 159.44231,32 156.52949,32 q -3.69231,0 -5.82564,-2.297436 -2.13334,-2.338461 -2.13334,-6.071795 0,-4.184615 2.09231,-6.523077 2.13333,-2.338461 5.57949,-2.338461 2.99487,0 4.6359,2.051282 1.64102,2.010256 1.64102,5.620513 v 1.271795 h -11.28205 q 0.12308,2.830769 1.4359,4.430769 1.35384,1.6 4.18461,1.6 z m 3.2,-8.28718 q -0.20513,-4.430769 -4.10256,-4.430769 -2.05128,0 -3.2,1.189744 -1.10769,1.148718 -1.39487,3.241025 z" />
    <path
       id="path76"
       style="fill:#ffffff"
       d="m 177.30769,31.302564 v -1.189743 h -0.0821 Q 175.25641,32 172.71282,32 q -2.99487,0 -4.9641,-2.338462 -1.92821,-2.338461 -1.92821,-5.907692 0,-4.061538 2.13334,-6.523077 2.13333,-2.461538 6.07179,-2.461538 2.54359,0 5.74359,0.94359 v 15.589743 q 0,4.307692 -1.7641,6.194872 -1.7641,1.887179 -5.66154,1.887179 -2.46154,0 -4.88205,-0.697436 v -2.379487 q 2.25641,0.820513 4.88205,0.820513 2.70769,0 3.81538,-1.189743 1.14872,-1.148718 1.14872,-4.635898 z m 0,-13.866667 q -1.68205,-0.410256 -3.48718,-0.410256 -2.70769,0 -4.02051,1.6 -1.31282,1.558974 -1.31282,4.758974 0,3.158975 1.27179,4.758975 1.2718,1.6 3.56924,1.6 2.29743,0 3.97948,-1.764103 z" />
    <path
       id="path78"
       style="fill:#ffffff"
       d="m 193.79519,29.74359 q 2.66667,0 5.25128,-1.682052 v 2.420513 Q 196.37981,32 193.46699,32 q -3.69231,0 -5.82564,-2.297436 -2.13334,-2.338461 -2.13334,-6.071795 0,-4.184615 2.09231,-6.523077 2.13333,-2.338461 5.57949,-2.338461 2.99487,0 4.6359,2.051282 1.64102,2.010256 1.64102,5.620513 v 1.271795 h -11.28205 q 0.12308,2.830769 1.4359,4.430769 1.35384,1.6 4.18461,1.6 z m 3.2,-8.28718 q -0.20513,-4.430769 -4.10256,-4.430769 -2.05128,0 -3.2,1.189744 -1.10769,1.148718 -1.39487,3.241025 z" />
    <path
       id="path80"
       style="fill:#ffffff"
       d="m 201.9375,29.74359 h 2.46154 V 9.6410256 H 201.9375 V 7.3846154 h 4.92308 V 29.74359 h 2.46154 V 32 h -7.38462 z" />
  </g>
</svg>
