<svg width="24" height="460" xmlns="http://www.w3.org/2000/svg" xmlns:xlink="http://www.w3.org/1999/xlink"><defs><symbol fill="none" viewBox="0 0 24 24" stroke-width="1.5" stroke="currentColor" id="arrow-down">
  <path stroke-linecap="round" stroke-linejoin="round" d="M19.5 13.5L12 21m0 0l-7.5-7.5M12 21V3" />
</symbol><symbol fill="none" viewBox="0 0 24 24" stroke-width="1.5" stroke="currentColor" id="arrow-right">
  <path stroke-linecap="round" stroke-linejoin="round" d="M13.5 4.5L21 12m0 0l-7.5 7.5M21 12H3" />
</symbol><symbol viewBox="0 0 20 20" fill="currentColor" id="calendar">
  <path fill-rule="evenodd" d="M5.75 2a.75.75 0 01.75.75V4h7V2.75a.75.75 0 011.5 0V4h.25A2.75 2.75 0 0118 6.75v8.5A2.75 2.75 0 0115.25 18H4.75A2.75 2.75 0 012 15.25v-8.5A2.75 2.75 0 014.75 4H5V2.75A.75.75 0 015.75 2zm-1 5.5c-.69 0-1.25.56-1.25 1.25v6.5c0 .69.56 1.25 1.25 1.25h10.5c.69 0 1.25-.56 1.25-1.25v-6.5c0-.69-.56-1.25-1.25-1.25H4.75z" clip-rule="evenodd" />
</symbol><symbol fill="none" viewBox="0 0 24 24" stroke-width="1.5" stroke="currentColor" id="chevron-left">
  <path stroke-linecap="round" stroke-linejoin="round" d="M15.75 19.5L8.25 12l7.5-7.5" />
</symbol><symbol fill="none" viewBox="0 0 24 24" stroke-width="1.5" stroke="currentColor" id="chevron-right">
  <path stroke-linecap="round" stroke-linejoin="round" d="M8.25 4.5l7.5 7.5-7.5 7.5" />
</symbol><symbol viewBox="0 0 20 20" fill="currentColor" id="clock">
  <path fill-rule="evenodd" d="M10 18a8 8 0 100-16 8 8 0 000 16zm.75-13a.75.75 0 00-1.5 0v5c0 .414.336.75.75.75h4a.75.75 0 000-1.5h-3.25V5z" clip-rule="evenodd" />
</symbol><symbol viewBox="0 0 24 24" id="facebook"><title>Facebook</title><path d="M24 12.073c0-6.627-5.373-12-12-12s-12 5.373-12 12c0 5.99 4.388 10.954 10.125 11.854v-8.385H7.078v-3.47h3.047V9.43c0-3.007 1.792-4.669 4.533-4.669 1.312 0 2.686.235 2.686.235v2.953H15.83c-1.491 0-1.956.925-1.956 1.874v2.25h3.328l-.532 3.47h-2.796v8.385C19.612 23.027 24 18.062 24 12.073z" /></symbol><symbol fill="none" viewBox="0 0 24 24" stroke-width="1.5" stroke="currentColor" id="globe-alt">
  <path stroke-linecap="round" stroke-linejoin="round" d="M12 21a9.004 9.004 0 008.716-6.747M12 21a9.004 9.004 0 01-8.716-6.747M12 21c2.485 0 4.5-4.03 4.5-9S14.485 3 12 3m0 18c-2.485 0-4.5-4.03-4.5-9S9.515 3 12 3m0 0a8.997 8.997 0 017.843 4.582M12 3a8.997 8.997 0 00-7.843 4.582m15.686 0A11.953 11.953 0 0112 10.5c-2.998 0-5.74-1.1-7.843-2.918m15.686 0A8.959 8.959 0 0121 12c0 .778-.099 1.533-.284 2.253m0 0A17.919 17.919 0 0112 16.5c-3.162 0-6.133-.815-8.716-2.247m0 0A9.015 9.015 0 013 12c0-1.605.42-3.113 1.157-4.418" />
</symbol><symbol viewBox="0 0 24 24" id="linkedin"><title>LinkedIn</title><path d="M20.447 20.452h-3.554v-5.569c0-1.328-.027-3.037-1.852-3.037-1.853 0-2.136 1.445-2.136 2.939v5.667H9.351V9h3.414v1.561h.046c.477-.9 1.637-1.85 3.37-1.85 3.601 0 4.267 2.37 4.267 5.455v6.286zM5.337 7.433c-1.144 0-2.063-.926-2.063-2.065 0-1.138.92-2.063 2.063-2.063 1.14 0 2.064.925 2.064 2.063 0 1.139-.925 2.065-2.064 2.065zm1.782 13.019H3.555V9h3.564v11.452zM22.225 0H1.771C.792 0 0 .774 0 1.729v20.542C0 23.227.792 24 1.771 24h20.451C23.2 24 24 23.227 24 22.271V1.729C24 .774 23.2 0 22.222 0h.003z" /></symbol><symbol viewBox="0 0 20 20" fill="currentColor" id="map-pin">
  <path fill-rule="evenodd" d="M9.69 18.933l.003.001C9.89 19.02 10 19 10 19s.11.02.308-.066l.002-.001.006-.003.018-.008a5.741 5.741 0 00.281-.14c.186-.096.446-.24.757-.433.62-.384 1.445-.966 2.274-1.765C15.302 14.988 17 12.493 17 9A7 7 0 103 9c0 3.492 1.698 5.988 3.355 7.584a13.731 13.731 0 002.273 1.765 11.842 11.842 0 00.976.544l.062.029.018.008.006.003zM10 11.25a2.25 2.25 0 100-4.5 2.25 2.25 0 000 4.5z" clip-rule="evenodd" />
</symbol><symbol fill="none" viewBox="0 0 24 24" stroke-width="1.5" stroke="currentColor" id="ticket">
  <path stroke-linecap="round" stroke-linejoin="round" d="M16.5 6v.75m0 3v.75m0 3v.75m0 3V18m-9-5.25h5.25M7.5 15h3M3.375 5.25c-.621 0-1.125.504-1.125 1.125v3.026a2.999 2.999 0 010 5.198v3.026c0 .621.504 1.125 1.125 1.125h17.25c.621 0 1.125-.504 1.125-1.125v-3.026a2.999 2.999 0 010-5.198V6.375c0-.621-.504-1.125-1.125-1.125H3.375z" />
</symbol><symbol viewBox="0 0 24 24" id="twitter"><title>Twitter</title><path d="M21.543 7.104c.015.211.015.423.015.636 0 6.507-4.954 14.01-14.01 14.01v-.003A13.94 13.94 0 0 1 0 19.539a9.88 9.88 0 0 0 7.287-2.041 4.93 4.93 0 0 1-4.6-3.42 4.916 4.916 0 0 0 2.223-.084A4.926 4.926 0 0 1 .96 9.167v-.062a4.887 4.887 0 0 0 2.235.616A4.928 4.928 0 0 1 1.67 3.148 13.98 13.98 0 0 0 11.82 8.292a4.929 4.929 0 0 1 8.39-4.49 9.868 9.868 0 0 0 3.128-1.196 4.941 4.941 0 0 1-2.165 2.724A9.828 9.828 0 0 0 24 4.555a10.019 10.019 0 0 1-2.457 2.549z" /></symbol><symbol viewBox="0 0 20 20" fill="currentColor" id="video-camera">
  <path d="M3.25 4A2.25 2.25 0 001 6.25v7.5A2.25 2.25 0 003.25 16h7.5A2.25 2.25 0 0013 13.75v-7.5A2.25 2.25 0 0010.75 4h-7.5zM19 4.75a.75.75 0 00-1.28-.53l-3 3a.75.75 0 00-.22.53v4.5c0 .199.079.39.22.53l3 3a.75.75 0 001.28-.53V4.75z" />
</symbol><symbol viewBox="0 0 24 24" id="xing"><title>Xing</title><path d="M18.188 0c-.517 0-.741.325-.927.66 0 0-7.455 13.224-7.702 13.657.015.024 4.919 9.023 4.919 9.023.17.308.436.66.967.66h3.454c.211 0 .375-.078.463-.22.089-.151.089-.346-.009-.536l-4.879-8.916c-.004-.006-.004-.016 0-.022L22.139.756c.095-.191.097-.387.006-.535C22.056.078 21.894 0 21.686 0h-3.498zM3.648 4.74c-.211 0-.385.074-.473.216-.09.149-.078.339.02.531l2.34 4.05c.004.01.004.016 0 .021L1.86 16.051c-.099.188-.093.381 0 .529.085.142.239.234.45.234h3.461c.518 0 .766-.348.945-.667l3.734-6.609-2.378-4.155c-.172-.315-.434-.659-.962-.659H3.648v.016z" /></symbol></defs></svg>